# xmcd
#
# Track frame offsets: 
#        150
#        20812
#        42637
#        65175
#        82650
#        100800
#        124837
#        149962
#        170362
#        192262
#        219037
#        246787
#        274012
#        296175
#        318900
#
# Disc length: 4522 seconds
#
# Revision: 15
# Processed by: cddbd v1.5.2PL0 Copyright (c) Steve Scherf et al.
# Submitted via: ExactAudioCopy v1.3
#
DISCID=e711a80f
DTITLE=今井美樹 - IMAI, MIKI from 1986 DISC ONE
DYEAR=1998
DGENRE=JPop
TTITLE0=黄昏のモノローグ
TTITLE1=野生の風
TTITLE2=静かにきたソリチュード
TTITLE3=彼女と TIP ON DUO
TTITLE4=Boogie-Woogie Lonesome High-Heel
TTITLE5=瞳がほほえむから
TTITLE6=PIECE OF MY WISH
TTITLE7=Blue Moon Blue
TTITLE8=Bluebird
TTITLE9=Miss You
TTITLE10=Ruby
TTITLE11=PRIDE
TTITLE12=DRIVE に連れてって
TTITLE13=白のワルツ
TTITLE14=私はあなたの空になりたい
EXTD=YEAR: 1998
EXTT0=
EXTT1=
EXTT2=
EXTT3=
EXTT4=
EXTT5=
EXTT6=
EXTT7=
EXTT8=
EXTT9=
EXTT10=
EXTT11=
EXTT12=
EXTT13=
EXTT14=
PLAYORDER=
